<?xml version="1.0" standalone="no"?>
<!DOCTYPE svg PUBLIC "-//W3C//DTD SVG 20010904//EN"
 "http://www.w3.org/TR/2001/REC-SVG-20010904/DTD/svg10.dtd">
<svg version="1.0" xmlns="http://www.w3.org/2000/svg"
 width="2388.000000pt" height="1668.000000pt" viewBox="0 0 2388.000000 1668.000000"
 preserveAspectRatio="xMidYMid meet">

<g transform="translate(0.000000,1668.000000) scale(0.100000,-0.100000)"
fill="#000000" stroke="none">
<path d="M0 8340 l0 -8340 11940 0 11940 0 0 8340 0 8340 -11940 0 -11940 0 0
-8340z m6657 -2033 c34 -7 72 -21 85 -33 13 -12 43 -34 68 -50 25 -15 54 -35
65 -45 26 -21 65 -31 140 -35 250 -13 284 -17 430 -56 131 -35 167 -49 280
-113 158 -88 180 -93 243 -60 111 57 142 93 154 177 21 156 106 192 308 127
52 -16 129 -32 170 -36 61 -5 91 -14 162 -49 l86 -43 52 -95 c58 -109 71 -170
47 -228 -11 -26 -27 -43 -54 -55 -67 -32 -48 -97 26 -92 20 2 42 0 49 -4 6 -5
37 -41 68 -82 30 -41 97 -113 147 -160 83 -78 99 -88 162 -106 200 -57 245
-69 300 -79 61 -12 247 -70 388 -122 49 -18 126 -61 205 -114 210 -141 280
-200 358 -303 63 -83 74 -105 103 -201 31 -106 32 -110 21 -197 -30 -225 -49
-350 -59 -376 -20 -53 -89 -142 -177 -232 -184 -186 -310 -282 -534 -405 -63
-35 -149 -83 -190 -108 -110 -65 -207 -112 -230 -112 -11 0 -88 -34 -171 -75
-82 -42 -177 -83 -211 -91 -33 -9 -81 -25 -106 -35 -165 -71 -613 -170 -1022
-225 -253 -34 -551 -65 -715 -74 -77 -4 -174 -13 -215 -19 -103 -15 -465 -33
-638 -32 -79 1 -174 -4 -210 -10 -42 -7 -209 -10 -452 -9 -212 1 -437 2 -500
1 -63 0 -187 6 -275 14 -88 8 -189 14 -225 14 -36 -1 -110 4 -165 10 -216 24
-413 41 -485 42 -41 0 -97 4 -125 8 -136 22 -313 56 -430 82 -71 16 -160 33
-196 38 -37 5 -99 21 -140 36 -40 14 -123 33 -184 41 -60 8 -141 23 -180 34
-38 10 -90 21 -115 24 -163 24 -560 137 -600 171 -8 7 -53 29 -100 50 -139 60
-294 144 -480 260 -96 60 -202 123 -235 140 -87 43 -208 141 -299 240 l-78 86
-20 107 c-67 378 -108 641 -108 698 0 55 5 76 31 123 16 32 44 75 61 95 49 60
224 211 318 275 86 59 255 151 277 151 7 0 72 20 145 45 231 79 539 161 733
195 61 10 162 28 225 39 134 24 258 39 425 51 66 4 190 18 275 29 571 76 632
83 895 93 149 6 287 11 308 10 l37 0 0 47 c0 26 -4 72 -9 102 -5 30 -12 73
-14 96 -5 42 -5 43 34 53 47 13 54 10 80 -41 11 -22 27 -43 35 -46 24 -9 74
18 90 49 14 27 17 28 28 12 12 -15 20 -16 90 -5 42 6 81 11 86 11 5 0 16 -35
24 -77 28 -135 49 -218 57 -227 13 -15 295 -16 315 -1 14 10 20 37 27 142 l10
129 61 48 c80 62 87 66 251 125 184 66 261 83 367 82 l88 -2 167 91 c137 74
174 90 198 85 17 -3 58 -11 92 -18z"/>
</g>
</svg>
